<svg xmlns="http://www.w3.org/2000/svg" version="1.1" xmlns:xlink="http://www.w3.org/1999/xlink" xmlns:svgjs="http://svgjs.dev/svgjs" viewBox="0 0 1422 800"><defs><linearGradient x1="50%" y1="0%" x2="50%" y2="100%" id="oooscillate-grad"><stop stop-color="hsl(206, 75%, 49%)" stop-opacity="1" offset="0%"></stop><stop stop-color="hsl(331, 90%, 56%)" stop-opacity="1" offset="100%"></stop></linearGradient></defs><g stroke-width="1" stroke="url(#oooscillate-grad)" fill="none" stroke-linecap="round"><path d="M 0 567 Q 355.5 125 711 400 Q 1066.5 675 1422 567" stroke-dasharray="11 24" opacity="0.35"></path><path d="M 0 558 Q 355.5 125 711 400 Q 1066.5 675 1422 558" stroke-dasharray="49 27" opacity="0.19"></path><path d="M 0 549 Q 355.5 125 711 400 Q 1066.5 675 1422 549" stroke-dasharray="14 20" opacity="0.96"></path><path d="M 0 540 Q 355.5 125 711 400 Q 1066.5 675 1422 540" stroke-dasharray="44 46" opacity="0.66"></path><path d="M 0 531 Q 355.5 125 711 400 Q 1066.5 675 1422 531" stroke-dasharray="18 23" opacity="0.98"></path><path d="M 0 522 Q 355.5 125 711 400 Q 1066.5 675 1422 522" stroke-dasharray="39 3" opacity="0.08"></path><path d="M 0 513 Q 355.5 125 711 400 Q 1066.5 675 1422 513" stroke-dasharray="14 25" opacity="0.97"></path><path d="M 0 504 Q 355.5 125 711 400 Q 1066.5 675 1422 504" stroke-dasharray="10 48" opacity="0.85"></path><path d="M 0 495 Q 355.5 125 711 400 Q 1066.5 675 1422 495" stroke-dasharray="2 27" opacity="0.76"></path><path d="M 0 486 Q 355.5 125 711 400 Q 1066.5 675 1422 486" stroke-dasharray="21 0" opacity="0.88"></path><path d="M 0 477 Q 355.5 125 711 400 Q 1066.5 675 1422 477" stroke-dasharray="24 35" opacity="0.85"></path><path d="M 0 468 Q 355.5 125 711 400 Q 1066.5 675 1422 468" stroke-dasharray="20 42" opacity="0.81"></path><path d="M 0 459 Q 355.5 125 711 400 Q 1066.5 675 1422 459" stroke-dasharray="24 31" opacity="0.74"></path><path d="M 0 450 Q 355.5 125 711 400 Q 1066.5 675 1422 450" stroke-dasharray="46 1" opacity="0.75"></path><path d="M 0 441 Q 355.5 125 711 400 Q 1066.5 675 1422 441" stroke-dasharray="29 19" opacity="0.68"></path><path d="M 0 432 Q 355.5 125 711 400 Q 1066.5 675 1422 432" stroke-dasharray="21 36" opacity="0.63"></path><path d="M 0 423 Q 355.5 125 711 400 Q 1066.5 675 1422 423" stroke-dasharray="49 54" opacity="0.12"></path><path d="M 0 414 Q 355.5 125 711 400 Q 1066.5 675 1422 414" stroke-dasharray="26 44" opacity="0.87"></path><path d="M 0 405 Q 355.5 125 711 400 Q 1066.5 675 1422 405" stroke-dasharray="14 25" opacity="0.42"></path><path d="M 0 396 Q 355.5 125 711 400 Q 1066.5 675 1422 396" stroke-dasharray="52 26" opacity="0.71"></path><path d="M 0 387 Q 355.5 125 711 400 Q 1066.5 675 1422 387" stroke-dasharray="8 21" opacity="0.94"></path><path d="M 0 378 Q 355.5 125 711 400 Q 1066.5 675 1422 378" stroke-dasharray="30 14" opacity="0.60"></path><path d="M 0 369 Q 355.5 125 711 400 Q 1066.5 675 1422 369" stroke-dasharray="47 52" opacity="0.13"></path><path d="M 0 360 Q 355.5 125 711 400 Q 1066.5 675 1422 360" stroke-dasharray="24 35" opacity="0.93"></path><path d="M 0 351 Q 355.5 125 711 400 Q 1066.5 675 1422 351" stroke-dasharray="35 28" opacity="0.96"></path><path d="M 0 342 Q 355.5 125 711 400 Q 1066.5 675 1422 342" stroke-dasharray="45 9" opacity="0.86"></path><path d="M 0 333 Q 355.5 125 711 400 Q 1066.5 675 1422 333" stroke-dasharray="54 1" opacity="0.93"></path><path d="M 0 324 Q 355.5 125 711 400 Q 1066.5 675 1422 324" stroke-dasharray="6 28" opacity="0.53"></path><path d="M 0 315 Q 355.5 125 711 400 Q 1066.5 675 1422 315" stroke-dasharray="45 41" opacity="0.10"></path><path d="M 0 306 Q 355.5 125 711 400 Q 1066.5 675 1422 306" stroke-dasharray="40 16" opacity="0.89"></path><path d="M 0 297 Q 355.5 125 711 400 Q 1066.5 675 1422 297" stroke-dasharray="42 45" opacity="0.70"></path><path d="M 0 288 Q 355.5 125 711 400 Q 1066.5 675 1422 288" stroke-dasharray="48 24" opacity="0.49"></path><path d="M 0 279 Q 355.5 125 711 400 Q 1066.5 675 1422 279" stroke-dasharray="15 29" opacity="0.78"></path><path d="M 0 270 Q 355.5 125 711 400 Q 1066.5 675 1422 270" stroke-dasharray="37 32" opacity="0.99"></path><path d="M 0 261 Q 355.5 125 711 400 Q 1066.5 675 1422 261" stroke-dasharray="38 53" opacity="0.90"></path><path d="M 0 252 Q 355.5 125 711 400 Q 1066.5 675 1422 252" stroke-dasharray="46 17" opacity="0.95"></path><path d="M 0 243 Q 355.5 125 711 400 Q 1066.5 675 1422 243" stroke-dasharray="34 32" opacity="0.15"></path><path d="M 0 234 Q 355.5 125 711 400 Q 1066.5 675 1422 234" stroke-dasharray="34 15" opacity="0.39"></path><path d="M 0 225 Q 355.5 125 711 400 Q 1066.5 675 1422 225" stroke-dasharray="35 41" opacity="0.88"></path><path d="M 0 216 Q 355.5 125 711 400 Q 1066.5 675 1422 216" stroke-dasharray="49 25" opacity="0.84"></path><path d="M 0 207 Q 355.5 125 711 400 Q 1066.5 675 1422 207" stroke-dasharray="17 15" opacity="0.98"></path><path d="M 0 198 Q 355.5 125 711 400 Q 1066.5 675 1422 198" stroke-dasharray="5 24" opacity="0.92"></path><path d="M 0 189 Q 355.5 125 711 400 Q 1066.5 675 1422 189" stroke-dasharray="39 42" opacity="0.93"></path><path d="M 0 180 Q 355.5 125 711 400 Q 1066.5 675 1422 180" stroke-dasharray="41 16" opacity="0.70"></path><path d="M 0 171 Q 355.5 125 711 400 Q 1066.5 675 1422 171" stroke-dasharray="30 34" opacity="0.57"></path><path d="M 0 162 Q 355.5 125 711 400 Q 1066.5 675 1422 162" stroke-dasharray="35 50" opacity="0.13"></path><path d="M 0 153 Q 355.5 125 711 400 Q 1066.5 675 1422 153" stroke-dasharray="22 21" opacity="0.45"></path><path d="M 0 144 Q 355.5 125 711 400 Q 1066.5 675 1422 144" stroke-dasharray="37 17" opacity="0.96"></path><path d="M 0 135 Q 355.5 125 711 400 Q 1066.5 675 1422 135" stroke-dasharray="46 11" opacity="0.59"></path><path d="M 0 126 Q 355.5 125 711 400 Q 1066.5 675 1422 126" stroke-dasharray="32 40" opacity="0.81"></path><path d="M 0 117 Q 355.5 125 711 400 Q 1066.5 675 1422 117" stroke-dasharray="39 8" opacity="0.44"></path><path d="M 0 108 Q 355.5 125 711 400 Q 1066.5 675 1422 108" stroke-dasharray="36 48" opacity="0.09"></path><path d="M 0 99 Q 355.5 125 711 400 Q 1066.5 675 1422 99" stroke-dasharray="16 31" opacity="0.14"></path><path d="M 0 90 Q 355.5 125 711 400 Q 1066.5 675 1422 90" stroke-dasharray="43 9" opacity="0.94"></path><path d="M 0 81 Q 355.5 125 711 400 Q 1066.5 675 1422 81" stroke-dasharray="42 6" opacity="0.14"></path><path d="M 0 72 Q 355.5 125 711 400 Q 1066.5 675 1422 72" stroke-dasharray="3 20" opacity="0.66"></path><path d="M 0 63 Q 355.5 125 711 400 Q 1066.5 675 1422 63" stroke-dasharray="43 32" opacity="0.14"></path><path d="M 0 54 Q 355.5 125 711 400 Q 1066.5 675 1422 54" stroke-dasharray="52 7" opacity="0.10"></path><path d="M 0 45 Q 355.5 125 711 400 Q 1066.5 675 1422 45" stroke-dasharray="25 44" opacity="0.51"></path><path d="M 0 36 Q 355.5 125 711 400 Q 1066.5 675 1422 36" stroke-dasharray="54 1" opacity="0.25"></path><path d="M 0 27 Q 355.5 125 711 400 Q 1066.5 675 1422 27" stroke-dasharray="44 36" opacity="0.74"></path><path d="M 0 18 Q 355.5 125 711 400 Q 1066.5 675 1422 18" stroke-dasharray="9 40" opacity="0.58"></path></g></svg>