<svg width="639.209" height="91.846" viewBox="0 0 639.209 91.846" xmlns="http://www.w3.org/2000/svg"><g id="svgGroup" stroke-linecap="round" fill-rule="evenodd" font-size="9pt" stroke="#000" stroke-width="0.25mm" fill="#000" style="stroke:#000;stroke-width:0.25mm;fill:#000"><path d="M 364.6 2.197 L 374.512 2.197 L 374.512 47.754 Q 374.512 52.24 374.211 55.753 A 57.352 57.352 0 0 1 373.999 57.813 A 33.698 33.698 0 0 1 373.285 61.774 A 25.343 25.343 0 0 1 372.168 65.259 A 19.415 19.415 0 0 1 370.838 67.951 Q 369.967 69.401 368.906 70.498 A 12.135 12.135 0 0 1 368.872 70.532 A 13.131 13.131 0 0 1 366.261 72.58 A 17.882 17.882 0 0 1 363.696 73.853 A 26.046 26.046 0 0 1 359.403 75.155 A 32.517 32.517 0 0 1 356.543 75.635 Q 353.515 76.009 349.514 76.096 A 116.172 116.172 0 0 1 346.973 76.123 A 112.512 112.512 0 0 1 343.134 76.061 Q 340.125 75.958 337.744 75.684 A 31.807 31.807 0 0 1 332.998 74.781 A 27.092 27.092 0 0 1 330.713 74.048 A 17.177 17.177 0 0 1 328.131 72.852 Q 326.637 71.993 325.53 70.891 A 10.907 10.907 0 0 1 325.513 70.874 Q 323.535 68.896 322.119 65.698 Q 320.792 62.7 320.215 58.693 A 37.772 37.772 0 0 1 320.142 58.154 A 60.571 60.571 0 0 1 319.799 54.655 Q 319.58 51.538 319.58 47.754 L 319.58 2.197 L 329.492 2.197 L 329.492 49.023 A 1083.217 1083.217 0 0 0 329.494 50.909 Q 329.498 53.397 329.515 54.745 A 127.818 127.818 0 0 0 329.517 54.883 Q 329.541 56.689 329.785 59.302 Q 330.021 61.824 330.393 62.798 A 2.979 2.979 0 0 0 330.42 62.866 A 9.326 9.326 0 0 0 330.714 63.507 Q 331.093 64.261 331.714 65.234 A 5.887 5.887 0 0 0 332.331 66.049 Q 332.703 66.454 333.11 66.71 A 2.869 2.869 0 0 0 333.765 67.017 Q 334.643 67.297 336.023 67.678 A 130.968 130.968 0 0 0 336.914 67.92 A 17.972 17.972 0 0 0 339.817 68.439 A 21.413 21.413 0 0 0 341.235 68.53 A 117.677 117.677 0 0 0 342.467 68.562 Q 344.358 68.602 346.855 68.603 A 324.174 324.174 0 0 0 347.021 68.604 A 114.338 114.338 0 0 0 349.853 68.571 Q 352.136 68.514 353.882 68.359 Q 356.641 68.115 358.691 67.383 A 14.744 14.744 0 0 0 359.989 66.853 Q 360.607 66.563 361.103 66.245 A 6.413 6.413 0 0 0 361.841 65.698 A 5.114 5.114 0 0 0 362.774 64.607 Q 363.115 64.082 363.392 63.425 A 9.991 9.991 0 0 0 363.599 62.891 A 16.167 16.167 0 0 0 364.453 59.033 Q 364.64 57.123 364.648 54.011 A 109.818 109.818 0 0 0 364.648 53.711 L 364.6 2.197 Z M 109.863 52.393 L 118.359 53.662 A 89.914 89.914 0 0 1 118.128 56.982 Q 117.983 58.609 117.785 60.024 A 44.208 44.208 0 0 1 117.529 61.646 A 28.763 28.763 0 0 1 116.748 64.948 A 22.338 22.338 0 0 1 115.796 67.529 Q 114.648 70.117 112.988 71.704 A 11.334 11.334 0 0 1 110.836 73.302 A 15.471 15.471 0 0 1 108.716 74.316 A 21.734 21.734 0 0 1 105.296 75.33 A 27.473 27.473 0 0 1 102.856 75.732 A 48.321 48.321 0 0 1 100.232 75.97 Q 97.888 76.123 95.02 76.123 Q 90.917 76.123 87.623 75.932 A 89.123 89.123 0 0 1 87.158 75.903 A 36.57 36.57 0 0 1 83.476 75.49 A 28.673 28.673 0 0 1 80.835 74.927 A 105.476 105.476 0 0 1 78.476 74.274 Q 77.049 73.86 75.854 73.462 A 9.394 9.394 0 0 1 72.095 71.094 A 65.256 65.256 0 0 1 70.943 69.897 Q 70.047 68.939 69.36 68.115 Q 68.284 66.824 67.536 64.198 A 22.199 22.199 0 0 1 67.505 64.087 A 77.64 77.64 0 0 1 66.989 62.147 Q 66.602 60.608 66.357 59.326 A 24.211 24.211 0 0 1 66.141 57.945 Q 65.902 56.116 65.747 53.369 Q 65.596 50.684 65.526 48.46 A 129.325 129.325 0 0 1 65.479 46.533 A 261.446 261.446 0 0 1 65.457 44.928 Q 65.43 42.31 65.43 38.428 Q 65.43 33.536 65.469 30.363 A 303.18 303.18 0 0 1 65.479 29.639 A 134.535 134.535 0 0 1 65.576 26.172 A 172.107 172.107 0 0 1 65.771 22.412 A 111.329 111.329 0 0 1 65.901 20.569 Q 66.059 18.578 66.257 17.167 A 27.904 27.904 0 0 1 66.382 16.357 Q 66.748 14.209 67.554 11.646 Q 68.332 9.171 69.314 7.925 A 5.313 5.313 0 0 1 69.385 7.837 A 18.339 18.339 0 0 1 70.323 6.789 Q 71.085 5.997 72.07 5.127 A 9.628 9.628 0 0 1 74.562 3.514 A 8.806 8.806 0 0 1 75.708 3.101 Q 77.222 2.671 79.237 2.226 A 100.995 100.995 0 0 1 80.518 1.953 Q 83.35 1.367 86.597 1.221 Q 89.387 1.095 92.953 1.077 A 239.297 239.297 0 0 1 94.141 1.074 A 104.731 104.731 0 0 1 97.288 1.119 Q 99.756 1.193 101.709 1.392 A 28.398 28.398 0 0 1 106.177 2.197 A 25.067 25.067 0 0 1 107.568 2.612 Q 110.183 3.476 111.904 4.875 A 9.951 9.951 0 0 1 112.061 5.005 Q 113.818 6.494 115.161 8.887 A 18.295 18.295 0 0 1 116.447 11.759 A 24.559 24.559 0 0 1 117.236 14.526 A 41.032 41.032 0 0 1 117.767 17.378 Q 118.108 19.618 118.311 22.314 L 109.766 23.975 Q 109.527 21.545 109.336 19.905 A 116.683 116.683 0 0 0 109.326 19.824 A 31.2 31.2 0 0 0 108.765 16.553 Q 108.398 14.941 108.179 13.94 A 4.964 4.964 0 0 0 107.657 12.587 A 6.206 6.206 0 0 0 107.275 11.987 A 43.969 43.969 0 0 0 106.95 11.54 Q 106.488 10.913 106.177 10.547 Q 105.762 10.059 104.639 9.619 A 20.533 20.533 0 0 0 103.91 9.349 Q 103.583 9.235 103.295 9.15 A 8.558 8.558 0 0 0 102.759 9.009 Q 102.002 8.838 100.269 8.691 A 48.342 48.342 0 0 0 99.034 8.602 Q 98.059 8.545 97.266 8.545 L 93.555 8.545 Q 90.137 8.545 87.964 8.618 A 48.819 48.819 0 0 0 83.618 8.96 Q 81.498 9.222 80.261 9.716 A 6.395 6.395 0 0 0 80.2 9.741 A 9.554 9.554 0 0 0 77.881 11.108 A 4.773 4.773 0 0 0 76.343 13.208 Q 75.942 14.283 75.815 15.74 A 14.851 14.851 0 0 0 75.781 16.211 A 772.628 772.628 0 0 0 75.342 42.529 A 372.856 372.856 0 0 0 75.781 60.84 Q 75.965 62.938 76.774 64.343 A 5.497 5.497 0 0 0 77.368 65.186 A 4.887 4.887 0 0 0 78.455 66.1 Q 79.597 66.829 81.464 67.377 A 23.024 23.024 0 0 0 82.593 67.676 A 26.716 26.716 0 0 0 85.326 68.164 Q 88.222 68.542 92.254 68.595 A 102.463 102.463 0 0 0 93.604 68.604 A 109.599 109.599 0 0 0 96.282 68.573 Q 97.331 68.547 98.26 68.5 A 51.575 51.575 0 0 0 100 68.384 Q 102.101 68.205 103.655 67.641 A 9.188 9.188 0 0 0 104.346 67.358 A 28.637 28.637 0 0 0 105.363 66.869 Q 106.285 66.402 106.892 65.99 A 7.702 7.702 0 0 0 107.031 65.894 A 2.695 2.695 0 0 0 107.645 65.268 Q 108.159 64.557 108.521 63.33 A 32.369 32.369 0 0 0 108.86 62.093 Q 109.001 61.537 109.099 61.047 A 14.071 14.071 0 0 0 109.253 60.132 A 25.458 25.458 0 0 0 109.34 59.37 Q 109.459 58.195 109.588 56.196 A 203.424 203.424 0 0 0 109.619 55.713 Q 109.668 55.029 109.692 54.639 A 51.453 51.453 0 0 1 109.706 54.427 Q 109.722 54.191 109.744 53.883 A 167.14 167.14 0 0 1 109.766 53.589 A 84.075 84.075 0 0 1 109.814 52.96 A 62.006 62.006 0 0 1 109.863 52.393 Z M 431.787 45.215 L 431.787 74.951 L 422.168 74.951 L 422.168 42.529 A 685.803 685.803 0 0 0 422.166 41.045 Q 422.162 38.934 422.144 37.524 A 49.517 49.517 0 0 0 421.948 33.74 A 55.112 55.112 0 0 0 421.861 32.848 Q 421.729 31.598 421.582 30.884 A 6.675 6.675 0 0 0 421.124 29.485 A 7.931 7.931 0 0 0 420.874 28.979 Q 420.401 28.101 419.907 27.742 A 1.625 1.625 0 0 0 419.824 27.686 A 3.864 3.864 0 0 0 419.419 27.464 Q 418.951 27.24 418.262 27.026 Q 417.236 26.709 416.211 26.66 A 32.879 32.879 0 0 0 415.656 26.639 Q 414.758 26.611 413.477 26.611 A 55.913 55.913 0 0 0 410.848 26.67 Q 409.559 26.73 408.438 26.855 A 27.454 27.454 0 0 0 407.153 27.026 A 24.991 24.991 0 0 0 405.363 27.374 Q 404.513 27.574 403.797 27.818 A 11.416 11.416 0 0 0 402.881 28.174 A 6.613 6.613 0 0 0 401.41 29.053 A 5.416 5.416 0 0 0 400.317 30.225 A 8.132 8.132 0 0 0 399.072 33.081 A 12.651 12.651 0 0 0 398.864 34.334 Q 398.782 35.03 398.75 35.831 A 26.312 26.312 0 0 0 398.73 36.865 A 36.411 36.411 0 0 0 398.74 37.617 Q 398.764 38.785 398.855 40.798 A 313.803 313.803 0 0 0 398.877 41.284 A 189.122 189.122 0 0 1 398.941 42.784 Q 399.023 44.922 399.023 46.387 L 399.023 74.951 L 389.404 74.951 L 389.404 21.387 L 398.193 21.387 L 399.121 27.393 Q 400.391 23.389 404.736 21.631 A 22.877 22.877 0 0 1 409.487 20.314 Q 411.715 19.935 414.25 19.882 A 39.859 39.859 0 0 1 415.088 19.873 A 40.39 40.39 0 0 1 417.444 19.938 Q 418.612 20.007 419.647 20.147 A 23.664 23.664 0 0 1 420.117 20.215 A 16.059 16.059 0 0 1 422.314 20.709 A 12.556 12.556 0 0 1 424.023 21.362 A 15.637 15.637 0 0 1 425.777 22.324 A 12.325 12.325 0 0 1 426.978 23.193 Q 428.223 24.219 429.077 25.903 A 21.467 21.467 0 0 1 430.469 29.346 Q 430.875 30.674 431.141 32.505 A 36.783 36.783 0 0 1 431.299 33.74 Q 431.592 36.377 431.689 38.989 A 124.436 124.436 0 0 1 431.749 41.089 Q 431.787 42.957 431.787 45.215 Z M 537.354 21.387 L 547.168 21.387 L 530.273 72.363 A 53.707 53.707 0 0 0 529.787 73.861 Q 529.58 74.53 529.366 75.272 A 100.753 100.753 0 0 0 528.931 76.831 A 482.698 482.698 0 0 1 528.592 78.075 Q 528.175 79.597 527.859 80.704 A 146.197 146.197 0 0 1 527.759 81.055 A 45.047 45.047 0 0 1 527.234 82.745 A 61.073 61.073 0 0 1 526.587 84.595 A 18.191 18.191 0 0 1 526.051 85.906 Q 525.768 86.523 525.468 87.029 A 8.391 8.391 0 0 1 525.049 87.671 A 12.03 12.03 0 0 1 523.791 89.135 A 14.656 14.656 0 0 1 522.998 89.868 A 7.177 7.177 0 0 1 520.692 91.187 A 8.617 8.617 0 0 1 520.068 91.382 Q 518.359 91.846 516.113 91.846 A 52.379 52.379 0 0 1 510.571 91.565 A 40.089 40.089 0 0 1 505.566 90.723 L 507.031 83.301 A 22.872 22.872 0 0 1 507.673 83.379 Q 508.447 83.482 509.521 83.667 A 85.92 85.92 0 0 0 510.635 83.851 Q 511.075 83.921 511.474 83.979 A 46.182 46.182 0 0 0 512.231 84.082 A 19.126 19.126 0 0 0 513.336 84.192 A 14.832 14.832 0 0 0 514.355 84.229 A 7.213 7.213 0 0 0 516.315 83.978 A 5.11 5.11 0 0 0 519.092 82.08 A 5.96 5.96 0 0 0 519.902 80.507 Q 520.717 78.229 520.752 74.121 L 500.684 21.387 L 510.4 21.387 L 520.264 48.584 A 1343.792 1343.792 0 0 1 522.852 55.798 A 1117.671 1117.671 0 0 1 525.244 62.598 A 354.649 354.649 0 0 1 526.144 59.363 Q 527.17 55.737 528.599 50.917 A 1282.799 1282.799 0 0 1 529.98 46.289 L 537.354 21.387 Z M 279.883 48.096 L 253.271 48.096 A 407.259 407.259 0 0 0 253.394 55.518 A 531.177 531.177 0 0 0 253.662 63.623 A 6.704 6.704 0 0 0 253.997 65.329 A 4.193 4.193 0 0 0 256.47 67.944 Q 258.846 68.918 265.399 68.989 A 97.599 97.599 0 0 0 266.455 68.994 A 59.931 59.931 0 0 0 268.433 68.963 Q 269.405 68.931 270.259 68.865 A 30.383 30.383 0 0 0 271.24 68.774 A 15.928 15.928 0 0 0 272.527 68.583 Q 273.67 68.362 274.487 67.993 A 17.672 17.672 0 0 0 275.213 67.647 Q 275.954 67.271 276.44 66.919 A 2.484 2.484 0 0 0 277.088 66.21 Q 277.281 65.902 277.422 65.512 A 4.781 4.781 0 0 0 277.49 65.308 A 16.731 16.731 0 0 0 277.696 64.593 Q 277.781 64.271 277.839 63.986 A 7.396 7.396 0 0 0 277.93 63.452 A 16.625 16.625 0 0 0 277.979 63.025 Q 278.052 62.312 278.125 61.161 A 113.559 113.559 0 0 0 278.125 61.157 A 49.023 49.023 0 0 1 278.177 60.423 Q 278.248 59.522 278.339 58.855 A 16.159 16.159 0 0 1 278.369 58.643 L 285.84 60.01 A 60.708 60.708 0 0 1 285.725 62.426 Q 285.644 63.605 285.519 64.625 A 28.873 28.873 0 0 1 285.352 65.796 A 15.972 15.972 0 0 1 284.79 68.137 A 12.404 12.404 0 0 1 284.033 69.971 A 10.727 10.727 0 0 1 283.122 71.453 A 7.752 7.752 0 0 1 281.836 72.827 A 7.791 7.791 0 0 1 280.557 73.676 Q 279.626 74.176 278.418 74.561 A 19.989 19.989 0 0 1 275.561 75.234 A 24.804 24.804 0 0 1 273.682 75.464 Q 271.094 75.684 267.285 75.684 A 71.724 71.724 0 0 1 263.391 75.584 Q 261.516 75.481 259.877 75.275 A 38.243 38.243 0 0 1 258.789 75.122 Q 255.846 74.665 253.6 74.029 A 27.544 27.544 0 0 1 252.612 73.73 A 9.756 9.756 0 0 1 249.668 72.213 A 8.957 8.957 0 0 1 248.389 71.021 A 25.713 25.713 0 0 1 247.072 69.408 Q 246.312 68.393 245.776 67.432 A 8.309 8.309 0 0 1 245.207 66.137 Q 244.68 64.633 244.385 62.402 Q 243.945 59.082 243.823 56.372 Q 243.73 54.297 243.708 51.006 A 320.588 320.588 0 0 1 243.701 48.877 A 447.684 447.684 0 0 1 243.712 45.694 Q 243.744 41.199 243.872 38.379 A 48.055 48.055 0 0 1 244.824 30.835 A 25.427 25.427 0 0 1 245.306 28.871 Q 245.976 26.57 246.924 25.342 A 9.777 9.777 0 0 1 248.32 23.893 Q 249.374 22.992 250.83 22.168 A 14.484 14.484 0 0 1 254.23 20.799 A 19.065 19.065 0 0 1 256.934 20.288 A 50.986 50.986 0 0 1 259.576 20.052 Q 262.312 19.873 265.869 19.873 A 109.868 109.868 0 0 1 268.545 19.904 Q 269.863 19.936 271.025 20.002 A 56.679 56.679 0 0 1 272.363 20.093 Q 275.098 20.313 277.393 20.996 Q 279.15 21.519 280.434 22.157 A 11.679 11.679 0 0 1 281.177 22.559 A 7.485 7.485 0 0 1 282.865 23.938 A 9.908 9.908 0 0 1 283.813 25.146 A 14.827 14.827 0 0 1 285.408 28.224 A 13.672 13.672 0 0 1 285.571 28.687 A 16.698 16.698 0 0 1 285.965 30.087 Q 286.14 30.822 286.292 31.687 A 41.406 41.406 0 0 1 286.572 33.545 Q 286.963 36.572 287.061 39.673 Q 287.156 42.698 287.158 47.189 A 434.255 434.255 0 0 1 287.158 47.412 A 1268.841 1268.841 0 0 1 285.117 47.615 Q 281.356 47.985 280.083 48.081 A 29.596 29.596 0 0 1 279.883 48.096 Z M 230.859 0 L 230.859 74.951 L 222.07 74.951 L 221.143 68.213 Q 218.77 74.164 210.294 75.374 A 33.538 33.538 0 0 1 205.566 75.684 A 44.45 44.45 0 0 1 202.563 75.587 Q 200.95 75.478 199.536 75.244 A 16.657 16.657 0 0 1 197.202 74.693 A 12.255 12.255 0 0 1 194.946 73.73 A 24.842 24.842 0 0 1 193.21 72.673 Q 192.369 72.109 191.672 71.527 A 15.489 15.489 0 0 1 191.65 71.509 Q 190.283 70.361 189.38 68.188 A 44.94 44.94 0 0 1 188.619 66.237 Q 188.284 65.312 188.034 64.472 A 26.393 26.393 0 0 1 187.964 64.233 A 14.517 14.517 0 0 1 187.67 62.984 Q 187.416 61.674 187.257 59.878 A 50.814 50.814 0 0 1 187.207 59.277 A 131.372 131.372 0 0 1 187.051 57.01 Q 186.985 55.889 186.948 54.89 A 70.642 70.642 0 0 1 186.914 53.735 A 173.103 173.103 0 0 1 186.893 52.446 Q 186.865 50.354 186.865 47.314 Q 186.865 43.359 186.987 40.479 Q 187.109 37.598 187.476 34.766 A 38.241 38.241 0 0 1 187.785 32.769 Q 187.963 31.795 188.179 30.959 A 18.534 18.534 0 0 1 188.452 30.005 Q 189.063 28.076 190.088 26.27 A 10.456 10.456 0 0 1 191.334 24.505 A 8.508 8.508 0 0 1 192.554 23.364 Q 193.994 22.266 195.996 21.411 A 15.544 15.544 0 0 1 198.434 20.612 A 20.5 20.5 0 0 1 200.586 20.215 Q 203.007 19.895 206.026 19.874 A 61.365 61.365 0 0 1 206.445 19.873 Q 212.672 19.873 216.155 21.519 A 11.059 11.059 0 0 1 216.235 21.558 Q 219.727 23.242 221.24 26.904 L 221.24 0.781 L 230.859 0 Z M 493.311 68.164 L 493.115 75 A 54.42 54.42 0 0 1 489.442 75.491 Q 487.705 75.659 486.138 75.681 A 33.02 33.02 0 0 1 485.693 75.684 A 26.833 26.833 0 0 1 483.292 75.583 Q 482.169 75.482 481.207 75.279 A 12.375 12.375 0 0 1 479.81 74.902 A 7.96 7.96 0 0 1 478.057 74.078 A 5.986 5.986 0 0 1 476.318 72.412 Q 475.146 70.703 474.707 68.628 A 17.381 17.381 0 0 1 474.448 66.988 Q 474.358 66.191 474.313 65.277 A 39.634 39.634 0 0 1 474.268 63.33 L 474.268 26.855 L 466.992 26.855 L 466.992 21.387 L 474.268 21.387 L 474.268 6.152 L 483.838 5.371 L 483.838 21.387 L 493.701 21.387 L 493.701 26.855 L 483.838 26.855 L 483.838 60.059 A 85.184 85.184 0 0 0 483.862 62.188 Q 483.935 65.087 484.225 66.419 A 4.816 4.816 0 0 0 484.351 66.895 A 2.08 2.08 0 0 0 485.791 68.272 Q 486.207 68.405 486.731 68.442 A 6.021 6.021 0 0 0 487.158 68.457 Q 489.187 68.457 492.571 68.218 A 171.556 171.556 0 0 0 493.311 68.164 Z M 148.486 75.627 A 111.014 111.014 0 0 0 152.148 75.684 Q 157.617 75.684 161.23 75.244 Q 164.844 74.805 167.456 73.34 Q 168.925 72.516 170.009 71.615 A 10.625 10.625 0 0 0 171.46 70.166 A 6.022 6.022 0 0 0 171.63 69.947 Q 172.498 68.775 173.115 66.809 A 22.266 22.266 0 0 0 173.633 64.819 A 44.384 44.384 0 0 0 174.585 57.617 A 108.633 108.633 0 0 0 174.656 55.793 Q 174.723 53.619 174.745 50.705 A 397.853 397.853 0 0 0 174.756 47.705 A 363.729 363.729 0 0 0 174.756 47.477 Q 174.754 44.067 174.687 41.479 A 132.385 132.385 0 0 0 174.634 39.795 A 59.771 59.771 0 0 0 174.072 33.569 Q 173.633 30.518 172.974 28.638 Q 172.314 26.758 171.069 25.073 A 10.674 10.674 0 0 0 170.133 23.967 A 8.289 8.289 0 0 0 168.262 22.51 Q 166.699 21.631 164.282 20.972 A 25.051 25.051 0 0 0 162.327 20.524 A 30.624 30.624 0 0 0 159.009 20.093 A 61.584 61.584 0 0 0 157.609 20.002 Q 156.393 19.936 155.009 19.904 A 121.21 121.21 0 0 0 152.197 19.873 A 128.899 128.899 0 0 0 150.404 19.885 Q 148.959 19.905 147.683 19.959 A 66.369 66.369 0 0 0 145.386 20.093 A 32.149 32.149 0 0 0 143.305 20.319 A 26.231 26.231 0 0 0 140.112 20.972 A 25.91 25.91 0 0 0 139.078 21.276 Q 138.252 21.539 137.543 21.832 A 13.055 13.055 0 0 0 136.133 22.51 A 8.059 8.059 0 0 0 134.65 23.59 A 10.243 10.243 0 0 0 133.325 25.073 Q 132.08 26.758 131.421 28.638 A 16.818 16.818 0 0 0 131.036 29.905 Q 130.83 30.686 130.65 31.61 A 40.682 40.682 0 0 0 130.322 33.569 A 59.771 59.771 0 0 0 129.761 39.795 Q 129.639 42.969 129.639 47.705 Q 129.639 52.466 129.735 55.661 A 110.433 110.433 0 0 0 129.81 57.617 A 44.384 44.384 0 0 0 130.762 64.819 A 27.063 27.063 0 0 0 130.85 65.214 Q 131.345 67.364 132.058 68.789 A 7.37 7.37 0 0 0 132.91 70.142 A 9.605 9.605 0 0 0 133.619 70.921 Q 134.267 71.561 135.106 72.171 A 19.089 19.089 0 0 0 136.89 73.315 A 14.423 14.423 0 0 0 139.948 74.601 A 19.38 19.38 0 0 0 143.115 75.244 A 49.19 49.19 0 0 0 145.283 75.456 Q 146.767 75.57 148.486 75.627 Z M 588.184 0.928 L 596.875 0.928 L 579.004 76.221 L 570.264 76.221 L 588.184 0.928 Z M 639.209 34.326 L 639.209 42.383 L 605.127 63.525 L 605.127 52.441 L 630.518 37.988 L 605.127 23.926 L 605.127 12.402 L 639.209 34.326 Z M 33.984 52.393 L 33.984 63.525 L 0 42.383 L 0 34.326 L 33.984 12.402 L 33.984 23.926 L 8.643 37.939 L 33.984 52.393 Z M 456.689 21.387 L 456.689 74.951 L 447.07 74.951 L 447.07 21.387 L 456.689 21.387 Z M 152.246 68.945 A 92.495 92.495 0 0 0 155.426 68.828 Q 159.852 68.581 161.89 67.92 Q 164.492 67.076 164.595 64.657 A 4.754 4.754 0 0 0 164.6 64.453 Q 165.137 57.471 165.137 48.291 A 101.859 101.859 0 0 0 165.121 46.614 Q 165.076 43.854 164.893 39.624 A 440.674 440.674 0 0 1 164.786 36.986 Q 164.648 33.301 164.648 31.25 A 4.452 4.452 0 0 0 164.556 30.328 A 3.716 3.716 0 0 0 164.38 29.736 A 2.63 2.63 0 0 0 163.501 28.589 Q 162.891 28.125 162.28 27.783 A 3.466 3.466 0 0 0 161.803 27.566 Q 161.293 27.374 160.572 27.246 A 176.974 176.974 0 0 1 159.795 27.106 Q 159.492 27.051 159.222 27.001 A 85.479 85.479 0 0 1 158.716 26.904 Q 158.062 26.778 156.934 26.724 A 29.451 29.451 0 0 0 156.567 26.709 A 122.389 122.389 0 0 0 155.911 26.688 Q 154.987 26.66 154.419 26.66 L 152.197 26.66 L 149.976 26.66 Q 149.219 26.66 147.827 26.709 Q 146.68 26.749 145.964 26.856 A 6.704 6.704 0 0 0 145.679 26.904 A 88.834 88.834 0 0 1 145.063 27.021 Q 144.786 27.073 144.477 27.129 A 182.538 182.538 0 0 1 143.823 27.246 Q 142.725 27.441 142.114 27.783 A 10.15 10.15 0 0 0 141.199 28.365 A 11.668 11.668 0 0 0 140.894 28.589 A 2.63 2.63 0 0 0 140.015 29.736 A 3.89 3.89 0 0 0 139.769 30.782 A 4.767 4.767 0 0 0 139.746 31.25 A 88.747 88.747 0 0 1 139.731 32.799 Q 139.686 35.363 139.506 39.524 A 550.198 550.198 0 0 1 139.502 39.624 A 406.457 406.457 0 0 0 139.395 42.281 Q 139.301 44.852 139.271 46.728 A 100.038 100.038 0 0 0 139.258 48.291 A 266.91 266.91 0 0 0 139.361 55.903 Q 139.46 59.37 139.654 62.446 A 148.527 148.527 0 0 0 139.795 64.453 A 3.539 3.539 0 0 0 140.188 66.149 Q 140.605 66.927 141.463 67.453 A 5.744 5.744 0 0 0 142.651 67.993 A 12.999 12.999 0 0 0 144.443 68.432 Q 146.361 68.777 149.224 68.89 A 76.8 76.8 0 0 0 152.246 68.945 Z M 221.24 62.5 L 221.24 34.033 A 10.684 10.684 0 0 0 221.054 31.964 Q 220.821 30.786 220.296 29.902 A 4.849 4.849 0 0 0 218.604 28.198 A 7.625 7.625 0 0 0 216.875 27.467 Q 214.034 26.611 208.691 26.611 A 63.222 63.222 0 0 0 206.042 26.663 Q 202.344 26.819 200.293 27.441 A 3.709 3.709 0 0 0 198.263 29.002 Q 197.859 29.605 197.57 30.418 A 9.83 9.83 0 0 0 197.266 31.47 A 24.093 24.093 0 0 0 196.854 33.787 Q 196.509 36.399 196.486 39.966 A 79.846 79.846 0 0 0 196.484 40.479 A 617.212 617.212 0 0 0 196.503 45.016 Q 196.54 50.121 196.656 56.978 A 2304.344 2304.344 0 0 0 196.777 63.574 A 7.11 7.11 0 0 0 197.096 65.26 A 4.219 4.219 0 0 0 199.39 67.896 A 7.731 7.731 0 0 0 200.859 68.376 Q 203.491 68.994 208.691 68.994 A 54.007 54.007 0 0 0 211.852 68.909 Q 214.852 68.732 216.75 68.19 A 8.489 8.489 0 0 0 218.237 67.627 A 5.147 5.147 0 0 0 220.884 64.426 A 8.636 8.636 0 0 0 221.24 62.5 Z M 253.32 42.969 L 277.539 42.969 A 221.252 221.252 0 0 0 277.368 36.987 A 167.476 167.476 0 0 0 277.051 31.543 A 5.99 5.99 0 0 0 276.747 29.958 A 3.893 3.893 0 0 0 274.487 27.563 Q 272.119 26.563 265.82 26.563 Q 260.103 26.563 257.823 27.086 A 5.207 5.207 0 0 0 256.982 27.344 A 3.337 3.337 0 0 0 255.542 28.198 A 3.441 3.441 0 0 0 255.05 28.83 Q 254.761 29.3 254.541 29.932 A 22.035 22.035 0 0 0 254.193 31.018 A 17.018 17.018 0 0 0 253.931 32.031 Q 253.732 32.913 253.613 34.413 A 37.65 37.65 0 0 0 253.589 34.741 Q 253.495 36.068 253.445 36.938 A 72.171 72.171 0 0 0 253.418 37.427 Q 253.37 38.37 253.345 40.297 A 201.644 201.644 0 0 0 253.345 40.332 Q 253.325 41.935 253.321 42.683 A 60.486 60.486 0 0 0 253.32 42.969 Z M 447.07 0.684 L 456.689 0.684 L 456.689 9.131 L 447.07 9.131 L 447.07 0.684 Z" vector-effect="non-scaling-stroke"/></g></svg>